<?xml version="1.0" encoding="UTF-8"?>
<svg id="Layer_2" data-name="Layer 2" xmlns="http://www.w3.org/2000/svg" xmlns:xlink="http://www.w3.org/1999/xlink" viewBox="0 0 1966.85 430.58">
  <defs>
    <style>
      .cls-1 {
        fill: none;
      }

      .cls-2 {
        fill: url(#linear-gradient);
      }

      .cls-3 {
        clip-path: url(#clippath);
      }

      .cls-4 {
        fill: #fff;
      }

      .cls-5 {
        fill: url(#linear-gradient-2);
      }

      .cls-6 {
        opacity: 0;
      }
    </style>
    <clipPath id="clippath">
      <rect class="cls-1" x="46.85" width="1920" height="389.83"/>
    </clipPath>
    <linearGradient id="linear-gradient" x1="41.27" y1="-1147.18" x2="174.8" y2="-1014.75" gradientTransform="translate(16.49 -1963.98) scale(2.07 -2.07)" gradientUnits="userSpaceOnUse">
      <stop offset="0" stop-color="#ff9200"/>
      <stop offset="1" stop-color="#ffd092"/>
    </linearGradient>
    <linearGradient id="linear-gradient-2" x1="78.16" y1="-953.3" x2="173.76" y2="-953.3" gradientTransform="translate(-216.36 -2395.33) scale(3.32 -2.77)" xlink:href="#linear-gradient"/>
  </defs>
  <g id="Layer_1-2" data-name="Layer 1">
    <g class="cls-3">
      <g class="cls-6">
        <path class="cls-2" d="M165.25,153.13c-28.6,0-43.31,78.09-41.78,151.41-.04-.01-.09,0-.13,0,1.53,64.35,15.76,126.04,43.97,126.04,108.26,0,231.6-102.09,231.6-138.69,0-9.16-9.33-26.77-21.82-40.68-.02,0-.05,0-.06,0-.85-.99-1.75-1.97-2.65-2.97-38.57-43.03-118.57-95.11-209.13-95.11Z"/>
        <path class="cls-4" d="M32.56,162.38C10.34,162.38-1.09,235.26,.1,303.7c-.03-.01-.07,0-.1,0,1.19,60.06,12.25,117.63,34.16,117.63,84.12,0,179.95-95.29,179.95-129.44,0-8.55-7.25-24.99-16.96-37.97-.01,0-.04,0-.05,0-.66-.92-1.36-1.84-2.06-2.77-29.96-40.16-92.13-88.77-162.49-88.77Z"/>
      </g>
      <g>
        <g>
          <path class="cls-4" d="M506.31,389.83h-69.9V115.61h16.9l23.04,26.63c11.26-10.24,24.02-18.14,38.28-23.68,14.25-5.55,29.15-8.32,44.68-8.32,16.73,0,32.52,3.2,47.37,9.6,14.85,6.4,27.83,15.19,38.92,26.37,11.1,11.18,19.84,24.24,26.24,39.18,6.4,14.94,9.6,30.85,9.6,47.75v156.7h-69.9V233.13c0-7.17-1.37-13.95-4.1-20.36-2.73-6.4-6.49-11.99-11.27-16.77-4.78-4.78-10.33-8.53-16.64-11.27-6.32-2.73-13.06-4.1-20.23-4.1s-14.26,1.37-20.74,4.1c-6.49,2.73-12.12,6.49-16.9,11.27-4.78,4.78-8.54,10.37-11.27,16.77-2.73,6.4-4.1,13.19-4.1,20.36v156.7Z"/>
          <path class="cls-4" d="M831.88,317.63c2.73,.85,5.46,1.41,8.19,1.66,2.73,.26,5.46,.39,8.19,.39,6.83,0,13.4-.94,19.72-2.82,6.31-1.88,12.25-4.57,17.8-8.07,5.55-3.5,10.5-7.77,14.85-12.8,4.35-5.04,7.9-10.63,10.63-16.77l51.21,51.47c-6.49,9.22-13.96,17.5-22.4,24.84-8.45,7.34-17.58,13.57-27.4,18.69-9.82,5.12-20.14,9-30.98,11.65-10.84,2.65-21.98,3.97-33.42,3.97-19.29,0-37.42-3.58-54.41-10.75-16.98-7.17-31.83-17.16-44.55-29.96-12.72-12.8-22.75-28.04-30.08-45.7-7.34-17.67-11.01-37.09-11.01-58.25s3.67-41.48,11.01-59.4c7.34-17.92,17.37-33.2,30.08-45.83,12.72-12.63,27.57-22.45,44.55-29.45,16.99-7,35.12-10.5,54.41-10.5,11.44,0,22.62,1.37,33.54,4.1,10.93,2.73,21.29,6.66,31.11,11.78,9.82,5.12,18.99,11.39,27.53,18.82,8.53,7.43,16.04,15.75,22.53,24.96l-131.1,157.98Zm35.85-144.16c-3.24-1.19-6.44-1.96-9.6-2.3-3.16-.34-6.45-.51-9.86-.51-9.56,0-18.56,1.75-27.01,5.25-8.45,3.5-15.79,8.49-22.02,14.98-6.23,6.49-11.14,14.3-14.72,23.43-3.58,9.13-5.38,19.42-5.38,30.85,0,2.56,.13,5.46,.38,8.71,.26,3.24,.68,6.53,1.28,9.86,.6,3.33,1.32,6.53,2.18,9.6,.85,3.07,1.96,5.8,3.33,8.19l81.42-108.05Z"/>
          <path class="cls-4" d="M1250.04,389.83h-85.52l-54.54-83.99-55.05,83.99h-85.52l100.11-140.57-100.11-135.19h85.52l55.05,78.61,54.54-78.61h85.52l-100.37,135.19,100.37,140.57Z"/>
          <path class="cls-4" d="M1345.53,389.83h-71.35V1.41h71.35V389.83Z"/>
          <path class="cls-4" d="M1651.58,384.71h-16.9l-27.14-37.64c-6.66,5.97-13.7,11.56-21.12,16.77-7.42,5.21-15.23,9.73-23.43,13.57-8.19,3.84-16.6,6.87-25.22,9.09-8.62,2.22-17.37,3.33-26.25,3.33-19.29,0-37.42-3.24-54.41-9.73-16.99-6.49-31.83-15.92-44.55-28.29-12.72-12.38-22.75-27.53-30.09-45.45-7.34-17.92-11.01-38.32-11.01-61.2,0-21.34,3.67-40.92,11.01-58.76,7.34-17.84,17.37-33.16,30.09-45.96,12.72-12.8,27.57-22.75,44.55-29.83,16.99-7.08,35.12-10.63,54.41-10.63,8.88,0,17.67,1.11,26.37,3.33,8.71,2.22,17.15,5.29,25.35,9.22,8.2,3.93,16,8.54,23.43,13.83,7.42,5.29,14.38,11.01,20.87,17.16l27.14-32.52h16.9V384.71Zm-70.41-139.55c0-9.56-1.83-18.82-5.5-27.78-3.67-8.96-8.66-16.9-14.98-23.81-6.31-6.91-13.7-12.46-22.15-16.64-8.45-4.18-17.45-6.27-27.01-6.27s-18.56,1.62-27.01,4.86c-8.45,3.24-15.79,8.02-22.02,14.34-6.23,6.32-11.14,14.13-14.72,23.43-3.58,9.3-5.38,19.93-5.38,31.88s1.79,22.57,5.38,31.88c3.58,9.3,8.49,17.11,14.72,23.43,6.23,6.32,13.57,11.1,22.02,14.34,8.45,3.24,17.45,4.87,27.01,4.87s18.56-2.09,27.01-6.27c8.45-4.18,15.83-9.73,22.15-16.64,6.32-6.91,11.31-14.85,14.98-23.81,3.67-8.96,5.5-18.22,5.5-27.78Z"/>
          <path class="cls-4" d="M1964.75,245.17c0,21.51-3.67,41.14-11.01,58.89-7.34,17.75-17.33,32.99-29.96,45.71-12.63,12.72-27.44,22.57-44.42,29.57-16.98,7-35.21,10.5-54.67,10.5s-37.42-3.58-54.41-10.75c-16.99-7.17-31.83-17.16-44.55-29.96-12.72-12.8-22.75-28.04-30.09-45.7-7.34-17.67-11.01-37.09-11.01-58.25V1.41h70.16V129.43c3.75-4.78,8.32-9.05,13.7-12.8,5.38-3.76,11.18-6.83,17.41-9.22,6.23-2.39,12.68-4.22,19.33-5.51,6.66-1.28,13.15-1.92,19.46-1.92,19.46,0,37.68,3.63,54.67,10.88,16.99,7.25,31.79,17.37,44.42,30.34,12.63,12.97,22.62,28.29,29.96,45.96,7.34,17.67,11.01,37,11.01,57.99Zm-70.41,0c0-10.58-1.83-20.44-5.5-29.57-3.67-9.13-8.66-17.03-14.98-23.68-6.31-6.66-13.7-11.86-22.15-15.62-8.45-3.76-17.45-5.63-27.01-5.63s-18.56,2.09-27.01,6.27c-8.45,4.18-15.83,9.73-22.15,16.64-6.32,6.91-11.27,14.85-14.85,23.81-3.58,8.96-5.38,18.22-5.38,27.78,0,10.58,1.79,20.4,5.38,29.45,3.58,9.05,8.53,16.9,14.85,23.56,6.31,6.66,13.7,11.91,22.15,15.75,8.45,3.84,17.45,5.76,27.01,5.76s18.56-1.92,27.01-5.76c8.45-3.84,15.83-9.09,22.15-15.75,6.32-6.66,11.31-14.51,14.98-23.56,3.67-9.05,5.5-18.86,5.5-29.45Z"/>
        </g>
        <path class="cls-5" d="M80.86,110.83c-3.97,0-7.71,1.08-11.22,3.09-3.51,2.01-6.79,4.96-9.83,8.69-2.35,2.88-4.56,6.24-6.63,10s-4,7.93-5.8,12.43c-.53,1.34-.65,2.8-.59,4.11,.07,1.31,.33,2.46,.56,3.19,.23,.73,.93,1.8,1.93,2.91,1,1.1,2.29,2.23,3.7,3.07,5.91,3.48,11.59,7.08,17.03,10.78,5.43,3.69,10.61,7.47,15.52,11.29,6.08,4.74,11.73,9.54,16.9,14.32,5.17,4.78,9.86,9.54,14.01,14.2l.63,.7,.63,.7,.61,.69,.61,.69s.01,0,.02,0c0,0,.02,0,.03,0,.01,0,.02,0,.03,0,0,0,.02,0,.02,0,2.9,3.24,5.62,6.71,8.06,10.21,2.44,3.5,4.61,7.04,6.41,10.44,1.8,3.4,3.24,6.66,4.23,9.61,.99,2.95,1.53,5.58,1.53,7.71,0,5.12-2.59,11.59-7.33,18.91-4.74,7.31-11.64,15.47-20.24,23.94-8.6,8.47-18.91,17.27-30.49,25.86-8.05,5.98-16.71,11.86-25.84,17.47-4,2.46-6.14,4.36-7.65,6.48-1.07,1.49-2.62,6.57-1.54,9.32,1.35,3.46,2.79,6.74,4.32,9.8,2.74,5.5,5.77,10.32,9.1,14.3,3.33,3.98,6.96,7.12,10.9,9.26,3.94,2.14,8.19,3.29,12.77,3.29,32.38,0,65.9-6.38,97.95-16.51,32.06-10.14,62.66-24.04,89.21-39.08,26.55-15.04,49.06-31.23,64.92-45.94,15.86-14.71,25.09-27.95,25.09-37.1,0-2.29-.7-5.11-1.98-8.27-1.28-3.16-3.15-6.67-5.48-10.32-2.33-3.65-5.14-7.45-8.29-11.21-3.15-3.76-6.65-7.47-10.39-10.95,0,0-.01,0-.02,0-.01,0-.02,0-.03,0-.01,0-.02,0-.03,0s-.02,0-.02,0l-.78-.74-.78-.74-.78-.74-.78-.74c-11.54-10.76-26.17-22.08-43.32-33.01-17.15-10.93-36.83-21.48-58.45-30.68-21.62-9.2-45.18-17.06-70.11-22.61-24.93-5.56-51.23-8.81-78.32-8.81Z"/>
      </g>
    </g>
  </g>
</svg>