<svg width="56" height="56" viewBox="0 0 56 56" fill="none" xmlns="http://www.w3.org/2000/svg">
<rect width="56" height="56" rx="8" fill="#FFCB3D" fill-opacity="0.2"/>
<path opacity="0.2" d="M20.2975 34.0956C18.8111 32.9347 17.6073 31.452 16.7764 29.759C15.9455 28.0659 15.5091 26.2066 15.5002 24.3206C15.4628 17.5453 20.925 11.9131 27.6986 11.7536C30.3234 11.6904 32.9014 12.4553 35.0671 13.9397C37.2327 15.4242 38.8759 17.5528 39.7637 20.0237C40.6515 22.4946 40.7387 25.1824 40.013 27.7056C39.2873 30.2289 37.7855 32.4596 35.7207 34.0813C35.2659 34.4337 34.8972 34.8848 34.6424 35.4007C34.3876 35.9165 34.2534 36.4835 34.25 37.0588L34.25 38.0001C34.25 38.3316 34.1183 38.6495 33.8839 38.884C33.6495 39.1184 33.3315 39.2501 33 39.2501H23C22.6685 39.2501 22.3505 39.1184 22.1161 38.884C21.8817 38.6495 21.75 38.3316 21.75 38.0001L21.75 37.0577C21.7485 36.4861 21.617 35.9224 21.3654 35.4091C21.1137 34.8959 20.7485 34.4467 20.2975 34.0956V34.0956Z" fill="#FFCB3D"/>
<path d="M21.75 44.25H34.25" stroke="#FFCB3D" stroke-width="2.5" stroke-linecap="round" stroke-linejoin="round"/>
<path d="M28 39.25V30.5" stroke="#FFCB3D" stroke-width="2.5" stroke-linecap="round" stroke-linejoin="round"/>
<path d="M23 25.5L28 30.5L33 25.5" stroke="#FFCB3D" stroke-width="2.5" stroke-linecap="round" stroke-linejoin="round"/>
<path d="M20.2975 34.0956C18.8111 32.9347 17.6073 31.452 16.7764 29.759C15.9455 28.0659 15.5091 26.2066 15.5002 24.3206C15.4628 17.5453 20.925 11.9131 27.6986 11.7536C30.3234 11.6904 32.9014 12.4553 35.0671 13.9397C37.2327 15.4242 38.8759 17.5528 39.7637 20.0237C40.6515 22.4946 40.7387 25.1824 40.013 27.7056C39.2873 30.2289 37.7855 32.4596 35.7207 34.0813C35.2659 34.4337 34.8972 34.8848 34.6424 35.4007C34.3876 35.9165 34.2534 36.4835 34.25 37.0588L34.25 38.0001C34.25 38.3316 34.1183 38.6495 33.8839 38.884C33.6495 39.1184 33.3315 39.2501 33 39.2501H23C22.6685 39.2501 22.3505 39.1184 22.1161 38.884C21.8817 38.6495 21.75 38.3316 21.75 38.0001L21.75 37.0577C21.7485 36.4861 21.617 35.9224 21.3654 35.4091C21.1137 34.8959 20.7485 34.4467 20.2975 34.0956V34.0956Z" stroke="#FFCB3D" stroke-width="2.5" stroke-linecap="round" stroke-linejoin="round"/>
</svg>
