<svg width="56" height="56" viewBox="0 0 56 56" fill="none" xmlns="http://www.w3.org/2000/svg">
<rect width="56" height="56" rx="8" fill="#145AFF" fill-opacity="0.2"/>
<path opacity="0.2" d="M36.125 15.5H36.125C37.2853 15.5 38.3981 15.9609 39.2186 16.7814C40.0391 17.6019 40.5 18.7147 40.5 19.875V19.875C40.5 21.0353 40.0391 22.1481 39.2186 22.9686C38.3981 23.7891 37.2853 24.25 36.125 24.25H31.75V19.875C31.75 18.7147 32.2109 17.6019 33.0314 16.7814C33.8519 15.9609 34.9647 15.5 36.125 15.5V15.5Z" fill="#145AFF"/>
<path opacity="0.2" d="M24.25 24.25H19.875C18.7147 24.25 17.6019 23.7891 16.7814 22.9686C15.9609 22.1481 15.5 21.0353 15.5 19.875V19.875C15.5 18.7147 15.9609 17.6019 16.7814 16.7814C17.6019 15.9609 18.7147 15.5 19.875 15.5H19.875C21.0353 15.5 22.1481 15.9609 22.9686 16.7814C23.7891 17.6019 24.25 18.7147 24.25 19.875V24.25Z" fill="#145AFF"/>
<path opacity="0.2" d="M31.75 31.75H36.125C37.2853 31.75 38.3981 32.2109 39.2186 33.0314C40.0391 33.8519 40.5 34.9647 40.5 36.125V36.125C40.5 37.2853 40.0391 38.3981 39.2186 39.2186C38.3981 40.0391 37.2853 40.5 36.125 40.5H36.125C34.9647 40.5 33.8519 40.0391 33.0314 39.2186C32.2109 38.3981 31.75 37.2853 31.75 36.125V31.75Z" fill="#145AFF"/>
<path opacity="0.2" d="M19.875 40.5H19.875C18.7147 40.5 17.6019 40.0391 16.7814 39.2186C15.9609 38.3981 15.5 37.2853 15.5 36.125V36.125C15.5 34.9647 15.9609 33.8519 16.7814 33.0314C17.6019 32.2109 18.7147 31.75 19.875 31.75H24.25V36.125C24.25 37.2853 23.7891 38.3981 22.9686 39.2186C22.1481 40.0391 21.0353 40.5 19.875 40.5V40.5Z" fill="#145AFF"/>
<path d="M19.875 40.5H19.875C18.7147 40.5 17.6019 40.0391 16.7814 39.2186C15.9609 38.3981 15.5 37.2853 15.5 36.125V36.125C15.5 34.9647 15.9609 33.8519 16.7814 33.0314C17.6019 32.2109 18.7147 31.75 19.875 31.75H24.25V36.125C24.25 37.2853 23.7891 38.3981 22.9686 39.2186C22.1481 40.0391 21.0353 40.5 19.875 40.5V40.5Z" stroke="#145AFF" stroke-width="2.5" stroke-linecap="round" stroke-linejoin="round"/>
<path d="M36.125 15.5H36.125C37.2853 15.5 38.3981 15.9609 39.2186 16.7814C40.0391 17.6019 40.5 18.7147 40.5 19.875V19.875C40.5 21.0353 40.0391 22.1481 39.2186 22.9686C38.3981 23.7891 37.2853 24.25 36.125 24.25H31.75V19.875C31.75 18.7147 32.2109 17.6019 33.0314 16.7814C33.8519 15.9609 34.9647 15.5 36.125 15.5V15.5Z" stroke="#145AFF" stroke-width="2.5" stroke-linecap="round" stroke-linejoin="round"/>
<path d="M24.25 24.25H19.875C18.7147 24.25 17.6019 23.7891 16.7814 22.9686C15.9609 22.1481 15.5 21.0353 15.5 19.875V19.875C15.5 18.7147 15.9609 17.6019 16.7814 16.7814C17.6019 15.9609 18.7147 15.5 19.875 15.5H19.875C21.0353 15.5 22.1481 15.9609 22.9686 16.7814C23.7891 17.6019 24.25 18.7147 24.25 19.875V24.25Z" stroke="#145AFF" stroke-width="2.5" stroke-linecap="round" stroke-linejoin="round"/>
<path d="M31.75 31.75H36.125C37.2853 31.75 38.3981 32.2109 39.2186 33.0314C40.0391 33.8519 40.5 34.9647 40.5 36.125V36.125C40.5 37.2853 40.0391 38.3981 39.2186 39.2186C38.3981 40.0391 37.2853 40.5 36.125 40.5H36.125C34.9647 40.5 33.8519 40.0391 33.0314 39.2186C32.2109 38.3981 31.75 37.2853 31.75 36.125V31.75Z" stroke="#145AFF" stroke-width="2.5" stroke-linecap="round" stroke-linejoin="round"/>
<path d="M31.75 24.25H24.25V31.75H31.75V24.25Z" stroke="#145AFF" stroke-width="2.5" stroke-linecap="round" stroke-linejoin="round"/>
</svg>
