<svg width="60" height="60" viewBox="0 0 60 60" fill="none" xmlns="http://www.w3.org/2000/svg">
<rect width="60" height="60" rx="4" fill="#FF784B"/>
<path d="M49.6667 34.6669V25.3336C49.655 24.0736 48.99 22.9186 47.905 22.3002L39.7267 17.6219C38.6417 16.9919 37.3117 16.9919 36.2267 17.6219L28.06 22.2769C26.9633 22.8952 26.2983 24.0502 26.2983 25.2986L26.2867 34.6319C26.2867 35.8802 26.9517 37.0352 28.0367 37.6536L36.2033 42.3202C37.2767 42.9386 38.6067 42.9386 39.6917 42.3086L47.8467 37.6419C48.9317 37.0119 49.5967 35.8569 49.5967 34.6086L49.6667 34.6669ZM47.3333 34.6552C47.3217 35.0636 47.1 35.4486 46.75 35.6586L38.5833 40.3136C38.21 40.5236 37.7667 40.5236 37.405 40.3136L29.2267 35.6352C28.865 35.4252 28.6433 35.0402 28.6433 34.6202V25.2869C28.6433 24.8669 28.865 24.4819 29.215 24.2719L37.37 19.6052C37.7317 19.3836 38.175 19.3836 38.5367 19.5936L46.7033 24.2602C47.0533 24.4586 47.275 24.8436 47.275 25.2636L47.2633 34.5852L47.3333 34.6552Z" fill="white"/>
<path d="M32.155 21.9154L37.405 24.9487C37.755 25.147 38.21 25.147 38.5717 24.9487L43.8217 21.9154C44.37 21.5887 44.5683 20.877 44.2417 20.317C43.915 19.757 43.2033 19.5587 42.6433 19.8854L37.3933 22.9187H38.56L33.31 19.8854C32.75 19.5587 32.0383 19.7454 31.7117 20.3054C31.385 20.8537 31.5717 21.5654 32.1317 21.892L32.155 21.9154Z" fill="white"/>
<path d="M33.9167 39.0883V33.0333C33.9167 32.6133 33.6833 32.2283 33.3333 32.0183L28.0833 28.985C27.5233 28.6583 26.8117 28.845 26.485 29.405C26.1583 29.9533 26.345 30.665 26.905 30.9916L32.155 34.025L31.5717 33.01V39.065C31.5717 39.7066 32.085 40.2316 32.7383 40.2316C33.38 40.2316 33.905 39.7066 33.905 39.065L33.9167 39.0883Z" fill="white"/>
<path d="M47.905 28.9848L42.655 32.0181C42.2933 32.2165 42.0717 32.6015 42.0717 33.0215V39.0765C42.0717 39.7181 42.585 40.2431 43.2383 40.2431C43.88 40.2431 44.405 39.7181 44.405 39.0765V33.0215L43.8217 34.0248L49.0717 30.9915C49.62 30.6648 49.8183 29.9531 49.4917 29.3931C49.165 28.8331 48.4533 28.6348 47.8933 28.9615L47.905 28.9848Z" fill="white"/>
<path d="M27.22 25.1234L37.405 31.015C37.755 31.2134 38.21 31.2134 38.5717 31.015L48.7567 25.1234C49.305 24.7967 49.5033 24.085 49.1767 23.525C48.85 22.965 48.1383 22.7667 47.5783 23.0934L37.3933 28.985H38.56L28.375 23.0934C27.815 22.7667 27.1033 22.9534 26.7767 23.5134C26.45 24.0617 26.6367 24.7734 27.1967 25.1L27.22 25.1234Z" fill="white"/>
<path d="M39.1667 41.7607V30.0007C39.1667 29.3473 38.6417 28.834 38 28.834C37.3467 28.834 36.8333 29.3473 36.8333 30.0007V41.7607C36.8333 42.4023 37.3467 42.9273 38 42.9273C38.6417 42.9273 39.1667 42.4023 39.1667 41.7607Z" fill="white"/>
</svg>
