<svg width="61" height="60" viewBox="0 0 61 60" fill="none" xmlns="http://www.w3.org/2000/svg">
<rect x="0.144043" width="60" height="60" rx="4" fill="#56C16A"/>
<path d="M30.2107 17.6337L26.7107 22.3003C26.559 22.4987 26.4774 22.7437 26.4774 23.0003V39.3337C26.4774 41.2587 28.0407 42.8337 29.9774 42.8337H46.3107C48.2357 42.8337 49.8107 41.2587 49.8107 39.3337V23.0003C49.8107 22.7437 49.7174 22.4987 49.5774 22.3003L46.0774 17.6337C45.8557 17.3303 45.5057 17.167 45.144 17.167H31.144C30.7707 17.167 30.4207 17.3303 30.2107 17.6337ZM32.0774 19.0337L31.144 19.5003H45.144L44.2107 19.0337L47.7107 23.7003L47.4774 23.0003V39.3337C47.4774 39.9753 46.9524 40.5003 46.3107 40.5003H29.9774C29.324 40.5003 28.8107 39.9753 28.8107 39.3337V23.0003L28.5774 23.7003L32.0774 19.0337Z" fill="white"/>
<path d="M27.644 24.1673H48.644C49.2857 24.1673 49.8107 23.6423 49.8107 23.0007C49.8107 22.3473 49.2857 21.834 48.644 21.834H27.644C26.9907 21.834 26.4774 22.3473 26.4774 23.0007C26.4774 23.6423 26.9907 24.1673 27.644 24.1673Z" fill="white"/>
<path d="M41.644 27.6667C41.644 29.5917 40.069 31.1667 38.144 31.1667C36.2074 31.1667 34.644 29.5917 34.644 27.6667C34.644 27.0133 34.119 26.5 33.4774 26.5C32.824 26.5 32.3107 27.0133 32.3107 27.6667C32.3107 30.8867 34.9124 33.5 38.144 33.5C41.364 33.5 43.9774 30.8867 43.9774 27.6667C43.9774 27.0133 43.4524 26.5 42.8107 26.5C42.1574 26.5 41.644 27.0133 41.644 27.6667Z" fill="white"/>
</svg>
